{"glyphs":{"0":{"ha":866,"x_min":58,"x_max":808,"o":"m 201 0 l 58 143 l 58 829 l 201 972 l 665 972 l 808 829 l 808 143 l 665 0 l 201 0 m 324 197 l 583 197 l 626 239 l 626 615 l 324 197 m 274 144 l 253 174 l 650 742 l 674 725 l 674 215 l 603 144 l 274 144 m 223 56 l 640 56 l 756 172 l 756 804 l 640 920 l 223 920 l 107 804 l 107 172 l 223 56 m 190 258 l 190 761 l 260 831 l 585 831 l 605 802 l 213 241 l 190 258 m 240 373 l 533 776 l 283 776 l 240 733 l 240 373 z "},"1":{"ha":757,"x_min":58,"x_max":699,"o":"m 58 0 l 58 197 l 279 197 l 279 742 l 58 690 l 58 906 l 344 972 l 475 972 l 475 197 l 699 197 l 699 0 l 58 0 m 116 52 l 640 52 l 640 141 l 422 141 l 422 919 l 358 919 l 111 858 l 111 759 l 333 815 l 333 141 l 116 141 l 116 52 z "},"2":{"ha":835,"x_min":58,"x_max":777,"o":"m 58 0 l 58 401 l 201 544 l 539 544 l 581 586 l 581 733 l 539 776 l 296 776 l 253 733 l 253 634 l 58 634 l 58 829 l 201 972 l 634 972 l 777 829 l 777 490 l 634 347 l 296 347 l 253 305 l 253 197 l 777 197 l 777 0 l 58 0 m 113 53 l 719 53 l 719 142 l 202 142 l 202 333 l 273 403 l 607 403 l 724 521 l 724 806 l 608 922 l 229 922 l 113 806 l 113 687 l 202 687 l 202 763 l 273 833 l 565 833 l 635 763 l 635 564 l 563 492 l 229 492 l 113 376 l 113 53 z "},"3":{"ha":820,"x_min":58,"x_max":763,"o":"m 201 0 l 58 143 l 58 331 l 253 331 l 253 239 l 296 197 l 525 197 l 567 239 l 567 345 l 525 388 l 338 388 l 338 583 l 524 583 l 567 630 l 567 733 l 525 776 l 296 776 l 253 733 l 253 641 l 58 641 l 58 829 l 201 972 l 620 972 l 763 829 l 763 530 l 719 486 l 763 441 l 763 143 l 620 0 l 201 0 m 226 56 l 594 56 l 710 172 l 710 413 l 637 485 l 710 559 l 710 804 l 594 920 l 226 920 l 110 804 l 110 688 l 199 688 l 199 761 l 270 831 l 551 831 l 621 761 l 621 603 l 549 531 l 383 531 l 383 442 l 549 442 l 621 370 l 621 215 l 551 144 l 270 144 l 199 215 l 199 285 l 110 285 l 110 172 l 226 56 z "},"4":{"ha":828,"x_min":35,"x_max":794,"o":"m 454 0 l 454 223 l 35 223 l 35 450 l 367 972 l 651 972 l 651 419 l 794 419 l 794 223 l 651 223 l 651 0 l 454 0 m 510 49 l 599 49 l 599 272 l 749 272 l 749 362 l 599 362 l 599 920 l 403 920 l 90 446 l 90 272 l 510 272 l 510 49 m 189 362 l 189 451 l 440 822 l 510 822 l 510 362 l 189 362 m 251 419 l 454 419 l 454 758 l 448 758 l 251 451 l 251 419 z "},"5":{"ha":839,"x_min":58,"x_max":781,"o":"m 201 0 l 58 143 l 58 318 l 253 318 l 253 239 l 296 197 l 543 197 l 585 239 l 585 447 l 543 489 l 303 489 l 243 422 l 58 422 l 58 972 l 778 972 l 778 776 l 253 776 l 253 665 l 274 685 l 638 685 l 781 542 l 781 143 l 638 0 l 201 0 m 231 53 l 612 53 l 728 169 l 728 517 l 612 634 l 280 634 l 222 576 l 201 576 l 201 831 l 724 831 l 724 920 l 112 920 l 112 476 l 224 476 l 290 544 l 568 544 l 640 474 l 640 213 l 568 142 l 274 142 l 199 216 l 199 276 l 110 276 l 110 173 l 231 53 z "},"6":{"ha":831,"x_min":58,"x_max":774,"o":"m 201 0 l 58 143 l 58 829 l 201 972 l 627 972 l 771 829 l 771 681 l 574 681 l 574 733 l 532 776 l 296 776 l 253 733 l 253 638 l 274 658 l 631 658 l 774 515 l 774 143 l 631 0 l 201 0 m 273 144 l 200 216 l 200 419 l 298 516 l 561 516 l 632 446 l 632 214 l 561 144 l 273 144 m 296 197 l 536 197 l 578 239 l 578 419 l 536 462 l 310 462 l 253 406 l 253 239 l 296 197 m 230 54 l 604 54 l 721 171 l 721 489 l 604 606 l 285 606 l 200 522 l 200 761 l 271 831 l 556 831 l 627 761 l 627 722 l 716 722 l 716 804 l 600 920 l 228 920 l 111 804 l 111 173 l 230 54 z "},"7":{"ha":758,"x_min":28,"x_max":716,"o":"m 55 0 l 520 674 l 520 776 l 28 776 l 28 972 l 716 972 l 716 625 l 297 0 l 55 0 m 158 49 l 265 49 l 663 638 l 663 919 l 80 919 l 80 829 l 574 829 l 574 660 l 158 49 z "},"8":{"ha":835,"x_min":58,"x_max":777,"o":"m 201 0 l 58 143 l 58 440 l 120 499 l 58 561 l 58 829 l 201 972 l 634 972 l 777 829 l 777 561 l 715 498 l 777 440 l 777 143 l 634 0 l 201 0 m 272 144 l 201 214 l 201 384 l 273 455 l 563 455 l 635 384 l 635 214 l 565 144 l 272 144 m 228 55 l 608 55 l 724 171 l 724 421 l 644 499 l 724 580 l 724 802 l 608 918 l 228 918 l 112 802 l 112 580 l 192 500 l 112 421 l 112 171 l 228 55 m 273 544 l 201 617 l 201 759 l 272 829 l 565 829 l 635 759 l 635 617 l 563 544 l 273 544 m 296 197 l 539 197 l 581 239 l 581 358 l 539 401 l 296 401 l 253 358 l 253 239 l 296 197 m 297 597 l 538 597 l 581 643 l 581 733 l 539 776 l 296 776 l 253 733 l 253 643 l 297 597 z "},"9":{"ha":831,"x_min":58,"x_max":774,"o":"m 631 972 l 774 829 l 774 143 l 631 0 l 204 0 l 60 143 l 60 291 l 257 291 l 257 239 l 299 197 l 535 197 l 578 239 l 578 335 l 557 314 l 200 314 l 57 457 l 57 829 l 200 972 l 631 972 m 558 828 l 631 756 l 631 553 l 533 456 l 270 456 l 199 526 l 199 758 l 270 828 l 558 828 m 535 776 l 295 776 l 253 733 l 253 553 l 295 510 l 522 510 l 578 566 l 578 733 l 535 776 m 601 918 l 227 918 l 110 801 l 110 483 l 227 367 l 547 367 l 631 451 l 631 211 l 560 142 l 275 142 l 204 211 l 204 250 l 115 250 l 115 168 l 231 52 l 603 52 l 720 168 l 720 799 l 601 918 z "},"D":{"ha":1008,"x_min":92,"x_max":915,"o":"m 92 0 l 92 972 l 772 972 l 915 829 l 915 143 l 772 0 l 92 0 m 289 197 l 677 197 l 719 239 l 719 733 l 677 776 l 289 776 l 289 197 m 147 53 l 745 53 l 861 169 l 861 802 l 745 918 l 147 918 l 147 53 m 235 143 l 235 829 l 701 829 l 772 759 l 772 213 l 701 143 l 235 143 z "},"E":{"ha":908,"x_min":85,"x_max":824,"o":"m 85 0 l 85 972 l 824 972 l 824 776 l 282 776 l 282 589 l 776 589 l 776 392 l 282 392 l 282 197 l 824 197 l 824 0 l 85 0 m 140 56 l 776 56 l 776 144 l 229 144 l 229 447 l 728 447 l 728 535 l 229 535 l 229 831 l 776 831 l 776 920 l 140 920 l 140 56 z "},"I":{"ha":838,"x_min":85,"x_max":753,"o":"m 85 0 l 85 197 l 322 197 l 322 776 l 85 776 l 85 972 l 753 972 l 753 776 l 517 776 l 517 197 l 753 197 l 753 0 l 85 0 m 138 53 l 701 53 l 701 142 l 460 142 l 460 831 l 701 831 l 701 920 l 138 920 l 138 831 l 372 831 l 372 142 l 138 142 l 138 53 z "},"N":{"ha":1126,"x_min":92,"x_max":1034,"o":"m 145 52 l 235 52 l 235 828 l 363 828 l 697 53 l 981 53 l 981 920 l 892 920 l 892 144 l 763 144 l 431 918 l 145 918 l 145 52 m 92 0 l 92 972 l 474 972 l 800 199 l 838 199 l 838 972 l 1034 972 l 1034 0 l 653 0 l 325 775 l 289 775 l 289 0 l 92 0 z "},"O":{"ha":1019,"x_min":85,"x_max":934,"o":"m 228 0 l 85 143 l 85 829 l 228 972 l 791 972 l 934 829 l 934 143 l 791 0 l 228 0 m 324 197 l 695 197 l 738 239 l 738 733 l 695 776 l 324 776 l 282 733 l 282 239 l 324 197 m 256 56 l 764 56 l 881 172 l 881 804 l 764 920 l 256 920 l 140 804 l 140 172 l 256 56 m 299 144 l 229 215 l 229 761 l 299 831 l 721 831 l 791 761 l 791 215 l 721 144 l 299 144 z "},"P":{"ha":990,"x_min":92,"x_max":919,"o":"m 92 0 l 92 972 l 776 972 l 919 829 l 919 447 l 763 290 l 289 290 l 289 0 l 92 0 m 145 47 l 234 47 l 234 346 l 738 346 l 867 475 l 867 804 l 751 920 l 145 920 l 145 47 m 289 487 l 667 487 l 723 542 l 723 733 l 681 776 l 289 776 l 289 487 m 234 435 l 234 831 l 708 831 l 778 761 l 778 517 l 694 435 l 234 435 z "},"S":{"ha":1017,"x_min":85,"x_max":931,"o":"m 228 0 l 85 143 l 85 318 l 282 318 l 282 239 l 324 197 l 692 197 l 735 239 l 735 346 l 692 388 l 233 388 l 90 531 l 90 829 l 233 972 l 775 972 l 918 829 l 918 654 l 722 654 l 722 733 l 679 776 l 328 776 l 285 733 l 285 627 l 328 585 l 788 585 l 931 442 l 931 143 l 788 0 l 228 0 m 253 53 l 760 53 l 876 169 l 876 422 l 767 532 l 303 532 l 232 602 l 232 760 l 302 829 l 708 829 l 775 763 l 775 703 l 864 703 l 864 806 l 751 919 l 259 919 l 143 803 l 143 560 l 260 442 l 723 442 l 786 381 l 786 213 l 716 142 l 297 142 l 230 209 l 230 269 l 141 269 l 141 166 l 253 53 z "},"T":{"ha":894,"x_min":58,"x_max":837,"o":"m 349 0 l 349 776 l 58 776 l 58 972 l 837 972 l 837 776 l 545 776 l 545 0 l 349 0 m 402 52 l 491 52 l 491 831 l 785 831 l 785 920 l 109 920 l 109 831 l 402 831 l 402 52 z "},"U":{"ha":1044,"x_min":85,"x_max":959,"o":"m 228 0 l 85 143 l 85 972 l 282 972 l 282 239 l 324 197 l 720 197 l 763 239 l 763 972 l 959 972 l 959 143 l 816 0 l 228 0 m 256 53 l 790 53 l 906 169 l 906 920 l 816 920 l 816 212 l 746 143 l 299 143 l 228 212 l 228 920 l 139 920 l 139 169 l 256 53 z "},"c":{"ha":949,"x_min":82,"x_max":857,"o":"m 225 0 l 82 143 l 82 607 l 225 750 l 857 750 l 857 553 l 321 553 l 278 511 l 278 239 l 321 197 l 857 197 l 857 0 l 225 0 m 256 53 l 803 53 l 803 143 l 300 143 l 225 217 l 225 538 l 297 609 l 803 609 l 803 698 l 253 698 l 136 581 l 136 172 l 256 53 z "},"d":{"ha":926,"x_min":82,"x_max":833,"o":"m 690 0 l 226 0 l 82 143 l 82 607 l 226 750 l 623 750 l 637 737 l 637 1042 l 833 1042 l 833 143 l 690 0 m 617 141 l 301 141 l 226 215 l 226 543 l 294 610 l 597 610 l 691 517 l 691 215 l 617 141 m 594 197 l 637 239 l 637 498 l 581 554 l 321 554 l 278 511 l 278 239 l 321 197 l 594 197 m 660 52 l 781 172 l 781 990 l 691 990 l 691 622 l 614 699 l 250 699 l 137 586 l 137 172 l 257 52 l 660 52 z "},"e":{"ha":983,"x_min":82,"x_max":901,"o":"m 758 750 l 901 607 l 901 409 l 758 266 l 278 266 l 278 239 l 321 197 l 891 197 l 891 0 l 225 0 l 82 143 l 82 607 l 225 750 l 758 750 m 687 608 l 758 537 l 758 463 l 697 403 l 221 403 l 221 533 l 295 608 l 687 608 m 730 697 l 251 697 l 131 576 l 131 170 l 249 53 l 835 53 l 835 142 l 292 142 l 221 213 l 221 317 l 733 317 l 847 430 l 847 580 l 730 697 m 662 553 l 321 553 l 278 511 l 278 456 l 676 456 l 705 485 l 705 511 l 662 553 z "},"i":{"ha":759,"x_min":82,"x_max":722,"o":"m 276 859 l 276 1042 l 500 1042 l 500 859 l 276 859 m 337 908 l 440 908 l 440 998 l 337 998 l 337 908 m 82 0 l 82 197 l 304 197 l 304 553 l 82 553 l 82 750 l 500 750 l 500 197 l 722 197 l 722 0 l 82 0 m 135 53 l 669 53 l 669 142 l 443 142 l 443 698 l 135 698 l 135 608 l 354 608 l 354 142 l 135 142 l 135 53 z "},"n":{"ha":904,"x_min":82,"x_max":822,"o":"m 82 0 l 82 607 l 225 750 l 679 750 l 822 607 l 822 0 l 626 0 l 626 511 l 584 553 l 320 553 l 278 511 l 278 0 l 82 0 m 136 53 l 225 53 l 225 537 l 297 608 l 609 608 l 680 538 l 680 53 l 769 53 l 769 581 l 652 697 l 253 697 l 136 580 l 136 53 z "},"o":{"ha":976,"x_min":82,"x_max":894,"o":"m 225 0 l 82 143 l 82 607 l 225 750 l 751 750 l 894 607 l 894 143 l 751 0 l 225 0 m 256 53 l 724 53 l 840 170 l 840 581 l 724 697 l 253 697 l 136 580 l 136 174 l 256 53 m 300 142 l 226 217 l 226 537 l 297 608 l 680 608 l 751 538 l 751 213 l 680 142 l 300 142 m 321 197 l 656 197 l 698 239 l 698 511 l 656 553 l 321 553 l 278 511 l 278 239 l 321 197 z "},"p":{"ha":945,"x_min":92,"x_max":864,"o":"m 92 -262 l 92 607 l 235 750 l 721 750 l 864 607 l 864 143 l 721 0 l 302 0 l 289 14 l 289 -262 l 92 -262 m 145 -209 l 235 -209 l 235 135 l 311 58 l 697 58 l 813 174 l 813 581 l 697 697 l 265 697 l 145 577 l 145 -209 m 344 197 l 625 197 l 667 239 l 667 511 l 625 554 l 331 554 l 289 511 l 289 252 l 344 197 m 328 147 l 235 240 l 235 534 l 309 608 l 653 608 l 724 538 l 724 217 l 653 147 l 328 147 z "},"s":{"ha":938,"x_min":82,"x_max":857,"o":"m 89 0 l 89 197 l 619 197 l 661 239 l 661 235 l 620 277 l 225 277 l 82 420 l 82 607 l 225 750 l 843 750 l 843 553 l 320 553 l 278 511 l 278 515 l 320 473 l 714 473 l 857 330 l 857 143 l 714 0 l 89 0 m 141 55 l 690 55 l 803 169 l 803 309 l 690 422 l 290 422 l 226 485 l 226 541 l 293 608 l 790 608 l 790 697 l 250 697 l 135 583 l 135 443 l 246 333 l 646 333 l 713 267 l 713 211 l 646 144 l 141 144 l 141 55 z "},"t":{"ha":724,"x_min":37,"x_max":643,"o":"m 242 0 l 242 554 l 37 554 l 37 750 l 242 750 l 242 940 l 438 940 l 438 750 l 643 750 l 643 554 l 438 554 l 438 197 l 638 197 l 638 0 l 242 0 m 296 53 l 585 53 l 585 142 l 385 142 l 385 609 l 590 609 l 590 698 l 385 698 l 385 888 l 296 888 l 296 698 l 90 698 l 90 609 l 296 609 l 296 53 z "},"u":{"ha":928,"x_min":82,"x_max":847,"o":"m 225 0 l 82 143 l 82 750 l 278 750 l 278 239 l 321 197 l 608 197 l 651 239 l 651 750 l 847 750 l 847 143 l 704 0 l 225 0 m 255 54 l 677 54 l 794 174 l 794 697 l 705 697 l 705 217 l 633 143 l 299 143 l 224 217 l 224 697 l 135 697 l 135 174 l 255 54 z "}," ":{"ha":434,"x_min":0,"x_max":0,"o":""},"!":{"ha":388,"x_min":85,"x_max":303,"o":"m 136 269 l 93 749 l 93 992 l 292 992 l 292 749 l 249 269 l 136 269 m 173 333 l 215 333 l 238 740 l 238 932 l 149 932 l 149 740 l 173 333 m 85 0 l 85 204 l 303 204 l 303 0 l 85 0 m 141 56 l 247 56 l 247 149 l 141 149 l 141 56 z "},"@":{"ha":1274,"x_min":71,"x_max":1196,"o":"m 219 -47 l 71 101 l 71 885 l 219 1033 l 1047 1033 l 1196 885 l 1196 349 l 1047 200 l 871 200 l 818 254 l 764 200 l 483 200 l 335 349 l 335 644 l 483 793 l 778 793 l 926 644 l 926 435 l 957 404 l 961 404 l 992 435 l 992 785 l 947 829 l 319 829 l 275 785 l 275 201 l 319 157 l 1049 157 l 1049 -47 l 219 -47 m 248 8 l 997 8 l 997 101 l 293 101 l 219 174 l 219 812 l 293 885 l 971 885 l 1044 812 l 1044 413 l 978 347 l 937 347 l 870 413 l 870 615 l 751 741 l 512 741 l 392 622 l 392 375 l 513 254 l 742 254 l 821 333 l 899 254 l 1016 254 l 1137 375 l 1137 856 l 1016 977 l 248 977 l 127 856 l 127 129 l 248 8 m 551 347 l 485 413 l 485 584 l 550 649 l 713 649 l 778 577 l 778 413 l 711 347 l 551 347 m 569 404 l 692 404 l 722 435 l 722 558 l 692 589 l 569 589 l 539 558 l 539 435 l 569 404 z "}}}
